<svg width="250" height="56" viewBox="0 0 250 56" fill="none" xmlns="http://www.w3.org/2000/svg">
<path d="M21.0504 12.5267L28.936 28.6596L43.7534 21.9863L37.0339 45.2271L20.5774 46.1084L9.69889 26.7162L21.0504 12.5268M22.0204 3.7417L6.00581 23.7601L4.01416 26.2507L5.57353 29.0313L16.4521 48.4235L17.8913 50.9897L20.8308 50.8326L37.2872 49.9513L40.6443 49.7722L41.5773 46.5426L48.297 23.3018L51.1381 13.4746L41.8099 17.6761L31.1736 22.465L25.3001 10.4503L22.0204 3.7417Z" fill="white"/>
<path d="M63.3706 42.0308V10.1768H75.938C78.3543 10.1768 80.4126 10.6382 82.1128 11.561C83.8131 12.4736 85.1097 13.7438 86.0011 15.3717C86.9038 16.9893 87.3548 18.8558 87.3548 20.9711C87.3548 23.0863 86.8981 24.9528 85.9856 26.5704C85.073 28.188 83.7512 29.4478 82.0199 30.3499C80.2984 31.2521 78.214 31.7031 75.7668 31.7031H67.7571V26.306H74.6781C75.9747 26.306 77.0422 26.0831 77.8821 25.6372C78.7327 25.1809 79.3647 24.5536 79.7797 23.7552C80.2046 22.9464 80.4175 22.0184 80.4175 20.9711C80.4175 19.9134 80.2046 18.9906 79.7797 18.2025C79.3647 17.4041 78.7327 16.7871 77.8821 16.3516C77.0316 15.9058 75.9535 15.6828 74.6471 15.6828H70.1057V42.0308H63.3706ZM99.8235 42.4974C97.408 42.4974 95.3188 41.9842 93.5557 40.9576C91.8032 39.9207 90.4503 38.4794 89.4962 36.6337C88.5421 34.7776 88.0651 32.626 88.0651 30.1788C88.0651 27.711 88.5421 25.5542 89.4962 23.7086C90.4503 21.8524 91.8032 20.4111 93.5557 19.3846C95.3188 18.3476 97.408 17.8292 99.8235 17.8292C102.24 17.8292 104.324 18.3476 106.077 19.3846C107.839 20.4111 109.197 21.8524 110.152 23.7086C111.106 25.5542 111.583 27.711 111.583 30.1788C111.583 32.626 111.106 34.7776 110.152 36.6337C109.197 38.4794 107.839 39.9207 106.077 40.9576C104.324 41.9842 102.24 42.4974 99.8235 42.4974ZM99.8553 37.3647C100.954 37.3647 101.872 37.0536 102.608 36.4315C103.344 35.799 103.899 34.9383 104.272 33.8496C104.656 32.7608 104.848 31.5217 104.848 30.1322C104.848 28.7428 104.656 27.5036 104.272 26.4149C103.899 25.3261 103.344 24.4655 102.608 23.8329C101.872 23.2004 100.954 22.8842 99.8553 22.8842C98.7454 22.8842 97.8125 23.2004 97.0549 23.8329C96.3088 24.4655 95.7436 25.3261 95.3604 26.4149C94.9869 27.5036 94.8001 28.7428 94.8001 30.1322C94.8001 31.5217 94.9869 32.7608 95.3604 33.8496C95.7436 34.9383 96.3088 35.799 97.0549 36.4315C97.8125 37.0536 98.7454 37.3647 99.8553 37.3647ZM120.327 10.1768V42.0308H113.701V10.1768H120.327ZM127.535 50.9898C126.695 50.9898 125.908 50.9223 125.171 50.7875C124.445 50.6631 123.844 50.5024 123.366 50.3054L124.86 45.3593C125.638 45.5978 126.337 45.7274 126.959 45.7482C127.592 45.7689 128.136 45.6237 128.593 45.3126C129.059 45.0016 129.438 44.4728 129.728 43.7262L130.117 42.7152L121.547 18.1403H128.515L133.461 35.6849H133.71L138.702 18.1403H145.717L136.432 44.6127C135.986 45.8985 135.379 47.0184 134.612 47.9723C133.855 48.9366 132.896 49.6781 131.735 50.1965C130.574 50.7253 129.174 50.9898 127.535 50.9898ZM147.042 42.0308V10.1768H153.668V22.1532H153.87C154.161 21.5103 154.581 20.857 155.13 20.1934C155.691 19.5194 156.416 18.9594 157.308 18.5136C158.21 18.0573 159.33 17.8292 160.667 17.8292C162.41 17.8292 164.017 18.2854 165.489 19.198C166.962 20.1 168.139 21.4636 169.02 23.2886C169.901 25.1032 170.342 27.3792 170.342 30.1167C170.342 32.7815 169.912 35.0316 169.051 36.867C168.201 38.692 167.04 40.0763 165.567 41.0199C164.105 41.953 162.466 42.4196 160.652 42.4196C159.367 42.4196 158.272 42.2071 157.37 41.7819C156.478 41.3568 155.748 40.8228 155.178 40.1799C154.607 39.5266 154.171 38.8682 153.87 38.2046H153.575V42.0308H147.042ZM153.529 30.0855C153.529 31.5061 153.725 32.7452 154.12 33.8029C154.514 34.8605 155.084 35.6849 155.831 36.276C156.577 36.8566 157.485 37.147 158.552 37.147C159.631 37.147 160.544 36.8514 161.29 36.2604C162.037 35.659 162.602 34.8295 162.985 33.7718C163.379 32.7037 163.576 31.475 163.576 30.0855C163.576 28.7065 163.385 27.4933 163.001 26.446C162.617 25.3987 162.052 24.5795 161.305 23.9885C160.559 23.3974 159.642 23.1019 158.552 23.1019C157.474 23.1019 156.562 23.3871 155.815 23.9574C155.079 24.5277 154.514 25.3365 154.12 26.3837C153.725 27.4311 153.529 28.665 153.529 30.0855ZM179.386 42.4819C177.862 42.4819 176.503 42.2175 175.311 41.6886C174.118 41.1494 173.175 40.3562 172.48 39.3089C171.796 38.2513 171.454 36.9344 171.454 35.3583C171.454 34.031 171.697 32.9163 172.185 32.0142C172.672 31.1121 173.335 30.3863 174.175 29.8367C175.015 29.2871 175.969 28.8724 177.037 28.5924C178.116 28.3124 179.246 28.1154 180.428 28.0013C181.818 27.8562 182.937 27.7214 183.787 27.5969C184.638 27.4621 185.255 27.2651 185.638 27.0059C186.022 26.7467 186.214 26.363 186.214 25.8549V25.7616C186.214 24.7765 185.903 24.0144 185.28 23.4752C184.669 22.936 183.798 22.6664 182.668 22.6664C181.475 22.6664 180.526 22.9308 179.822 23.4597C179.116 23.9781 178.65 24.6314 178.421 25.4194L172.293 24.9217C172.604 23.47 173.216 22.2153 174.129 21.1577C175.041 20.0897 176.218 19.2705 177.66 18.7002C179.111 18.1196 180.791 17.8292 182.699 17.8292C184.026 17.8292 185.297 17.9848 186.509 18.2958C187.733 18.6069 188.816 19.0891 189.761 19.7423C190.714 20.3956 191.466 21.2354 192.015 22.262C192.565 23.2782 192.84 24.4966 192.84 25.9171V42.0308H186.556V38.7178H186.37C185.986 39.4644 185.473 40.1229 184.829 40.6932C184.187 41.2531 183.415 41.6939 182.512 42.0152C181.61 42.3263 180.568 42.4819 179.386 42.4819ZM181.284 37.909C182.258 37.909 183.119 37.7172 183.865 37.3336C184.612 36.9396 185.198 36.4108 185.623 35.7471C186.048 35.0835 186.261 34.3317 186.261 33.4918V30.9566C186.053 31.0914 185.768 31.2158 185.405 31.3298C185.053 31.4335 184.653 31.532 184.207 31.6253C183.762 31.7084 183.316 31.7861 182.87 31.8586C182.424 31.9209 182.02 31.978 181.656 32.0297C180.879 32.1438 180.2 32.3253 179.619 32.5742C179.039 32.823 178.588 33.16 178.266 33.5851C177.944 33.9999 177.784 34.5183 177.784 35.1405C177.784 36.0426 178.111 36.7322 178.764 37.2092C179.428 37.6757 180.268 37.909 181.284 37.909ZM215.668 24.9528L209.602 25.3261C209.499 24.8077 209.275 24.341 208.933 23.9263C208.591 23.5012 208.14 23.1641 207.58 22.9152C207.031 22.6561 206.372 22.5264 205.605 22.5264C204.578 22.5264 203.713 22.7442 203.007 23.1797C202.302 23.6048 201.95 24.1751 201.95 24.8906C201.95 25.4609 202.178 25.9431 202.634 26.3371C203.091 26.7311 203.873 27.0474 204.982 27.2859L209.307 28.1568C211.629 28.6339 213.361 29.4012 214.502 30.4589C215.642 31.5165 216.212 32.906 216.212 34.6272C216.212 36.193 215.751 37.5669 214.829 38.749C213.916 39.931 212.661 40.8539 211.064 41.5175C209.477 42.1708 207.647 42.4974 205.574 42.4974C202.411 42.4974 199.891 41.839 198.015 40.5221C196.148 39.1948 195.054 37.3906 194.733 35.1094L201.25 34.7672C201.446 35.7315 201.924 36.4678 202.68 36.9759C203.438 37.4736 204.408 37.7225 205.589 37.7225C206.75 37.7225 207.684 37.4995 208.389 37.0536C209.105 36.5974 209.468 36.0115 209.477 35.2961C209.468 34.6947 209.213 34.2021 208.716 33.8184C208.217 33.4245 207.451 33.1237 206.414 32.9163L202.277 32.092C199.944 31.6253 198.207 30.8165 197.066 29.6656C195.935 28.5146 195.37 27.0474 195.37 25.2639C195.37 23.7293 195.785 22.4072 196.615 21.2977C197.455 20.1882 198.631 19.3328 200.146 18.7313C201.67 18.1299 203.453 17.8292 205.496 17.8292C208.513 17.8292 210.888 18.4669 212.619 19.7423C214.361 21.0177 215.377 22.7545 215.668 24.9528ZM229.082 42.4974C226.625 42.4974 224.51 41.9997 222.736 41.0043C220.974 39.9985 219.615 38.5779 218.661 36.7426C217.707 34.8968 217.23 32.7141 217.23 30.1944C217.23 27.737 217.707 25.5802 218.661 23.724C219.615 21.868 220.959 20.4215 222.69 19.3846C224.432 18.3476 226.474 17.8292 228.818 17.8292C230.395 17.8292 231.862 18.0833 233.219 18.5913C234.589 19.0891 235.781 19.8408 236.797 20.8466C237.824 21.8524 238.622 23.1175 239.193 24.6417C239.763 26.1557 240.048 27.9288 240.048 29.9611V31.7809H219.875V27.6747H233.811C233.811 26.7208 233.603 25.8757 233.188 25.1395C232.774 24.4033 232.198 23.8278 231.462 23.413C230.736 22.9878 229.891 22.7753 228.927 22.7753C227.921 22.7753 227.029 23.0086 226.252 23.4752C225.484 23.9314 224.883 24.5484 224.447 25.3261C224.012 26.0934 223.789 26.9489 223.778 27.8925V31.7964C223.778 32.9785 223.996 33.9999 224.432 34.8605C224.878 35.7212 225.505 36.3848 226.314 36.8514C227.123 37.3181 228.082 37.5514 229.192 37.5514C229.927 37.5514 230.602 37.4476 231.213 37.2403C231.825 37.0329 232.348 36.7218 232.784 36.307C233.219 35.8923 233.551 35.3842 233.78 34.7828L239.908 35.1872C239.596 36.6596 238.959 37.9453 237.995 39.0445C237.041 40.1333 235.807 40.9835 234.292 41.5954C232.79 42.1967 231.053 42.4974 229.082 42.4974Z" fill="white"/>
</svg>
